<svg xmlns="http://www.w3.org/2000/svg" width="18" height="18" fill="none">
  <g clip-path="url(#a)">
    <path fill="url(#b)" d="M10.742 9.169A5.558 5.558 0 1 0 .006 7.149h2.65a2.919 2.919 0 0 1 2.916-2.917 2.915 2.915 0 0 1 2.174 4.856 8.79 8.79 0 0 1 1.264-.093c.589.006 1.17.067 1.732.174Z"/>
    <path fill="url(#c)" d="M11.117 17.998v-2.649H3.224a6.372 6.372 0 0 0-.575 2.649h8.468Z"/>
    <path fill="url(#d)" d="M10.742 9.169A8.782 8.782 0 0 0 8.997 9c-.428 0-.857.034-1.265.094C3.365 9.71 0 13.463 0 18.005h2.649a6.327 6.327 0 0 1 1.86-4.495 6.315 6.315 0 0 1 4.488-1.86c1.699 0 3.29.662 4.488 1.86a6.315 6.315 0 0 1 1.86 4.488v-6.375a8.986 8.986 0 0 0-4.603-2.454Z"/>
    <path fill="#F9B48B" d="M12.709 4.239h2.642v13.759H18V1.59h-5.291v2.649Z"/>
  </g>
  <defs>
    <linearGradient id="c" x1="9.115" x2="1.099" y1="16.676" y2="16.676" gradientUnits="userSpaceOnUse">
      <stop stop-color="#F9B48B"/>
      <stop offset="1" stop-color="#814849"/>
    </linearGradient>
    <linearGradient id="d" x1="6.024" x2="14.748" y1="13.5" y2="13.5" gradientUnits="userSpaceOnUse">
      <stop stop-color="#F9B48B"/>
      <stop offset="1" stop-color="#814849"/>
    </linearGradient>
    <radialGradient id="b" cx="0" cy="0" r="1" gradientTransform="translate(9.96 9.873) scale(6.48908)" gradientUnits="userSpaceOnUse">
      <stop stop-color="#814849"/>
      <stop offset=".09" stop-color="#814849"/>
      <stop offset="1" stop-color="#F9B48B"/>
    </radialGradient>
    <clipPath id="a">
      <path fill="#fff" d="M0 0h18v18H0z"/>
    </clipPath>
  </defs>
</svg>
