<svg xmlns="http://www.w3.org/2000/svg" width="24" height="24">
  <g fill="none" fill-rule="nonzero">
    <path fill="#C64B38" d="M12.7649206 13.4246154c.5784616.3068132 1.1068132.6285714 1.578022.9626373 2.2241758 1.5753847 3.1701099 3.4443957 2.6479121 5.0927473-.4826374 1.5182418-2.2707692 2.8808791-4.7446154 3.643956.0931868-1.454945.1767033-2.9098901.2602198-4.3648351l.1758242-3.4021978.0826373-1.9323077z"/>
    <path fill="#C64B38" d="M17.793492 18.2281319c.109011-2.0149451-1.6975824-4.1978022-4.981978-5.9129671l.0149451-.3586813c.0430769-1.1340659.1336264-2.26813185.2021978-3.40219779.0087912-.15120879.0167033-.30241758.0237362-.45362637 4.5907693 2.39032966 7.1076924 5.43999996 6.9327473 8.25142856-.1793407 2.8105495-3.1903297 5.4382418-7.6712088 6.7569231 3.2158242-.9573626 5.3652747-2.8545055 5.4795604-4.8808791z"/>
    <path fill="#C64B38" d="M20.680525 15.7569231c.0641758-2.9573627-2.6901099-6.14241761-7.6-8.62505497.0087912-.65934066-.0043956-1.31956044-.0413187-1.9789011-.0254945-.46153846-.0589011-.92395604-.0984615-1.3854945 6.1046154 3.0189011 9.5226374 6.93714287 9.4065934 10.56351647-.1186813 3.5402198-3.7767033 6.8712088-9.3230769 8.5758242 4.5846154-1.4312088 7.5876923-4.2065934 7.6562637-7.1498901z"/>
    <path fill="#C64B38" d="M23.0866789 13.698022c-.0553847-3.76000002-3.767033-7.79164837-10.2329671-10.86769233-.0378022-.36043956-.0791209-.72-.1257143-1.08043956C12.6937118 1.50021978 12.658547 1.25054945 12.6207448 1c7.1903297 3.36263736 11.3081319 7.81186813 11.3372283 11.9516484.0210135 3.9507692-3.8664591 7.6967032-9.9139316 9.6624175 5.5437363-1.8206593 9.0892308-5.2773626 9.0426374-8.9160439z"/>
    <path fill="#8F2A2B" d="M11.1921734 13.4246154c-.5784616.3068132-1.1068132.6285714-1.57802201.9626373C7.38997556 15.9626374 6.4440415 17.8316484 6.9662393 19.48c.48263736 1.5182418 2.27076923 2.8808791 4.7446154 3.643956-.0931868-1.454945-.1767033-2.9098901-.2602198-4.3648351l-.1758242-3.4021978-.0826373-1.9323077z"/>
    <path fill="#8F2A2B" d="M6.16360194 18.2281319c-.10901099-2.0149451 1.69758242-4.1978022 4.98197806-5.9129671l-.0149451-.3586813c-.0430769-1.1340659-.1336264-2.26813185-.2021978-3.40219779-.0087912-.15120879-.0167033-.30241758-.0237363-.45362637C6.31393161 10.490989 3.79700853 13.5406593 3.97195359 16.3520879c.17934066 2.8105495 3.19032967 5.4382418 7.67120881 6.7569231-3.2158242-.9573626-5.36615387-2.8545055-5.47956046-4.8808791z"/>
    <path fill="#8F2A2B" d="M3.27568985 15.7569231c-.06417582-2.9573627 2.69010989-6.14241761 7.60000005-8.62505497-.0087913-.65934066.0043956-1.31956044.0413186-1.9789011.0254945-.46153846.0589011-.92395604.0984616-1.3854945C4.91085469 6.78637363 1.49371183 10.7046154 1.60887666 14.330989c.11868132 3.5402198 3.7767033 6.8712088 9.32307694 8.5758242-4.58373628-1.4312088-7.5868132-4.2065934-7.65626375-7.1498901z"/>
    <path fill="#8F2A2B" d="M.87041512 13.698022C.92579974 9.93802198 4.6374481 5.90637363 11.1033822 2.83032967c.0378022-.36043956.0791208-.72.1257142-1.08043956.0342858-.24967033.0694506-.49934066.1081319-.74989011C4.14689864 4.36351648.02909644 8.81274725 0 12.9534066c-.02101345 3.9507692 3.86645908 7.6967033 9.91393161 9.6624176C4.36931622 20.7934066.8229426 17.3367033.87041512 13.698022z"/>
  </g>
</svg>
