<svg xmlns="http://www.w3.org/2000/svg" width="18" height="18">
  <path d="M11.7487 18H6.2453L2 14L1 9L2 5L4 3L9 1L14 3L16 5L17 9L16 14L11.7487 18Z" fill="#fff"/>
  <path d="M9 0C4.03 0 0 4.131 0 9.228C0 13.305 2.579 16.763 6.155 17.984C6.605 18.069 6.769 17.784 6.769 17.539C6.769 17.32 6.762 16.739 6.757 15.969C4.254 16.527 3.726 14.733 3.726 14.733C3.316 13.666 2.726 13.383 2.726 13.383C1.909 12.811 2.788 12.822 2.788 12.822C3.691 12.887 4.166 13.773 4.166 13.773C4.969 15.183 6.273 14.776 6.786 14.539C6.868 13.943 7.1 13.537 7.357 13.306C5.359 13.073 3.257 12.281 3.257 8.746C3.257 7.738 3.608 6.914 4.184 6.269C4.091 6.036 3.782 5.097 4.273 3.827C4.273 3.827 5.028 3.579 6.747 4.773C7.48053 4.56825 8.23844 4.46397 9 4.463C9.76155 4.46409 10.5195 4.56837 11.253 4.773C12.972 3.579 13.726 3.827 13.726 3.827C14.217 5.097 13.908 6.036 13.816 6.269C14.393 6.914 14.741 7.739 14.741 8.745C14.741 12.29 12.636 13.071 10.631 13.299C10.954 13.584 11.242 14.147 11.242 15.008C11.242 16.241 11.232 17.236 11.232 17.539C11.232 17.786 11.394 18.073 11.85 17.983C15.424 16.76 18 13.303 18 9.228C18 4.131 13.97 0 9 0Z" fill="#161514"/>
</svg>
