<svg width="24" height="24" viewBox="0 0 24 24" fill="none" xmlns="http://www.w3.org/2000/svg">
<path d="M11.9915 23.9995C11.836 23.9998 11.683 23.9587 11.5483 23.8805L1.97011 18.3364C1.82837 18.2605 1.70982 18.1475 1.62706 18.0094C1.54431 17.8712 1.50045 17.7131 1.50016 17.5521V6.47612C1.49734 6.32426 1.53163 6.1741 1.60002 6.03865C1.66843 5.90319 1.76887 5.78654 1.89259 5.69901C2.0303 5.60558 2.19147 5.55275 2.35767 5.54675C2.52388 5.54075 2.6884 5.58176 2.83249 5.665L12.4349 11.2236C12.5696 11.3017 12.6816 11.4138 12.7594 11.549C12.8372 11.6841 12.8782 11.8374 12.8782 11.9935V23.0937C12.8824 23.2927 12.822 23.488 12.7062 23.6498C12.6218 23.7592 12.5134 23.8475 12.3896 23.9081C12.2656 23.9687 12.1294 24.0001 11.9915 23.9995ZM3.7263 17.0227L10.2378 20.7916C10.3018 20.8311 10.3754 20.8524 10.4506 20.8534C10.5259 20.8543 10.6 20.8349 10.6651 20.7971C10.7302 20.7592 10.7839 20.7044 10.8202 20.6384C10.8568 20.5725 10.8748 20.4979 10.8724 20.4224V12.8944C10.8724 12.8211 10.8532 12.749 10.8166 12.6855C10.78 12.622 10.7275 12.5692 10.6641 12.5326L4.14304 8.76608C4.07967 8.7294 4.00782 8.71013 3.93466 8.71013C3.86152 8.71013 3.78967 8.7294 3.7263 8.76615C3.66293 8.80275 3.61034 8.85548 3.57382 8.919C3.53719 8.98253 3.51803 9.05453 3.51803 9.12788V16.656C3.51713 16.7302 3.53599 16.8032 3.57262 16.8676C3.60925 16.932 3.66223 16.9856 3.7263 17.0227Z" fill="#9FEF00"/>
<path d="M11.9915 12.8945C11.8359 12.8948 11.6829 12.8538 11.5482 12.7756L1.9458 7.2193C1.81104 7.14097 1.69916 7.02853 1.62139 6.89328C1.54362 6.75792 1.50269 6.60446 1.50269 6.4483C1.50269 6.29213 1.54362 6.13867 1.62139 6.00342C1.69916 5.86806 1.81104 5.75562 1.9458 5.67729L11.5288 0.130818C11.5806 0.0986355 11.6358 0.0725543 11.6935 0.0531064C11.7714 0.024585 11.853 0.00740849 11.9358 0.00210637C12.0902 -0.00858795 12.2448 0.0215737 12.3839 0.089541L12.4566 0.128387L22.0444 5.67729C22.1793 5.75562 22.2912 5.86806 22.3689 6.00342C22.4466 6.13867 22.4877 6.29213 22.4877 6.4483C22.4877 6.60446 22.4466 6.75792 22.3689 6.89328C22.2912 7.02853 22.1793 7.14097 22.0444 7.2193L12.4421 12.7756C12.3053 12.855 12.1496 12.8961 11.9915 12.8945ZM5.2597 6.79924L11.7831 10.573C11.8464 10.6099 11.9183 10.6293 11.9915 10.6293C12.0647 10.6293 12.1366 10.6099 12.1998 10.573L18.7233 6.79924C18.7873 6.76243 18.8404 6.7093 18.8773 6.64537C18.9142 6.58145 18.9336 6.50882 18.9336 6.43499C18.9336 6.36106 18.9142 6.28843 18.8773 6.2245C18.8404 6.16058 18.7873 6.10756 18.7233 6.07075L12.1998 2.29453C12.1362 2.25881 12.0645 2.24 11.9915 2.24C11.9186 2.24 11.8468 2.25881 11.7831 2.29453L5.2597 6.07075C5.19573 6.10756 5.14264 6.16058 5.10572 6.2245C5.06879 6.28843 5.04933 6.36106 5.04933 6.43499C5.04933 6.50882 5.06879 6.58145 5.10572 6.64537C5.14264 6.7093 5.19573 6.76243 5.2597 6.79924Z" fill="#9FEF00"/>
<path d="M11.9915 23.9993C11.8529 23.9988 11.7162 23.966 11.5923 23.9037C11.4682 23.8414 11.3603 23.7511 11.277 23.64C11.1665 23.4796 11.1097 23.2883 11.1147 23.0935V12.003C11.1147 11.847 11.1556 11.6937 11.2334 11.5586C11.3113 11.4235 11.4232 11.3112 11.5579 11.2332L21.1604 5.67455C21.29 5.60012 21.4363 5.55951 21.5857 5.55661C21.7352 5.55361 21.8829 5.58832 22.0154 5.65765C22.1635 5.73678 22.287 5.85523 22.3724 5.99998C22.4578 6.14474 22.5019 6.31021 22.4999 6.47838V17.5616C22.4996 17.7228 22.4558 17.8807 22.3731 18.0189C22.2903 18.157 22.1717 18.27 22.03 18.346L12.4519 23.89C12.3112 23.9678 12.1521 24.0056 11.9915 23.9993ZM13.1229 12.8893V20.4175C13.1231 20.4904 13.1423 20.562 13.1788 20.6252C13.2152 20.6884 13.2676 20.7409 13.3306 20.7775C13.3935 20.8141 13.465 20.8336 13.5377 20.8339C13.6105 20.8342 13.6822 20.8153 13.7454 20.7793L20.2568 17.0225C20.3201 16.9859 20.3728 16.933 20.4094 16.8697C20.4459 16.8061 20.4652 16.734 20.4652 16.6606V9.13267C20.4665 9.0582 20.4481 8.9847 20.4115 8.91982C20.3752 8.85495 20.3221 8.80102 20.2578 8.7636C20.1936 8.72617 20.1205 8.70667 20.0462 8.70705C19.972 8.70757 19.8991 8.7279 19.8354 8.766L13.3239 12.5348C13.2621 12.572 13.211 12.6247 13.1758 12.6877C13.1405 12.7508 13.1223 12.822 13.1229 12.8942V12.8893Z" fill="#9FEF00"/>
</svg>
