<svg width="24" height="24" xmlns="http://www.w3.org/2000/svg">
  <g clip-path="url(#clip0_404_20)">
    <circle cx="12" cy="12" r="12" fill="#500800" />
    <path opacity="0.27"
      d="M11.9743 1C5.93458 1 1 5.94035 1 11.9871C1 18.0339 5.93458 23 12 23C18.0654 23 23 18.0596 23 11.9871C23 5.91462 18.0397 1 11.9743 1Z"
      fill="#030303" />
    <path
      d="M12.2313 15.8725C12.1028 15.7696 11.9229 15.7953 11.7944 15.8982C11.3318 16.3099 10.6636 16.7216 9.99535 16.876C9.86685 16.9017 9.81545 17.0819 9.89255 17.2362C10.0211 17.5193 10.3295 17.9052 10.6122 18.1626C10.8949 18.4199 11.1262 18.4971 11.3318 18.6514C11.5374 18.8058 11.8458 19.2175 11.9743 19.3976C12 19.4491 12.0771 19.4491 12.1028 19.3976C12.2056 19.2175 12.4369 18.8316 12.694 18.6257C12.9767 18.3941 13.722 17.9824 13.9019 17.4936C13.979 17.2877 14.1075 17.0047 14.2103 16.8245C14.3388 16.5672 14.2617 16.4128 14.0818 16.4128C13.3879 16.3871 12.694 16.1813 12.2313 15.8725Z"
      fill="#F7F4F1" />
    <path
      d="M11.9743 1.72049C6.32007 1.72049 1.7196 6.32634 1.7196 11.9872C1.7196 17.6737 6.32007 22.2538 11.9743 22.2538C17.6285 22.2538 22.229 17.648 22.229 11.9872C22.2547 6.32634 17.6542 1.72049 11.9743 1.72049ZM18.8107 5.60587L17.5514 6.86669V6.7895C17.5514 6.32634 17.2687 6.0433 16.9089 5.73452L16.8832 5.70879L17.9369 4.80821C18.2453 5.03979 18.528 5.32283 18.8107 5.60587ZM7.1168 4.01055L7.78503 3.62458C7.83643 3.59885 7.91353 3.54739 7.96493 3.52166L9.30138 5.27137L9.07007 3.10996C9.42989 2.98131 9.8154 2.87838 10.2266 2.80119L11.1261 5.40002L11.3832 2.64681C11.5888 2.64681 11.7687 2.62107 11.9743 2.62107C12.1799 2.62107 12.3598 2.62107 12.5654 2.64681L12.8224 5.2971L13.7219 2.80119C14.1075 2.87838 14.493 2.98131 14.8785 3.08423L14.6472 5.34856L15.9579 3.52166C16.3177 3.70178 16.6518 3.88189 16.986 4.08774L16.3434 5.32283C15.9836 5.14271 15.5981 5.06552 15.4439 5.32283C15.1869 5.73452 14.9299 6.01757 14.8528 6.01757C14.5701 5.99183 14.0561 5.73452 13.4906 5.73452C12.3855 5.73452 12.0514 6.50645 12.0514 6.50645C12.0514 6.50645 11.486 5.73452 10.4836 5.73452C9.48129 5.73452 9.17288 6.0433 9.17288 6.0433C9.17288 6.0433 8.91587 5.42575 8.73596 5.24564C8.60746 5.11698 8.11914 5.19417 7.65652 5.45148L7.63082 5.37429L6.9626 4.11347C6.9883 4.08774 7.0654 4.06201 7.1168 4.01055ZM14.493 7.793C13.7476 7.94739 13.3107 8.30762 13.1565 8.41055C12.9766 8.51347 12.8995 8.2047 12.9766 8.05031C13.0537 7.89593 13.2336 7.89593 13.4135 7.71581C13.8504 7.30412 14.0561 7.25265 14.493 7.22692C14.8014 7.20119 15.0841 7.25265 15.264 7.30412C15.4439 7.35558 15.5724 7.56143 15.7009 7.81874C15.7523 7.94739 15.8808 8.30762 15.8551 8.6164C15.8551 8.71932 15.778 8.74505 15.7523 8.69359C15.7266 8.64213 15.4953 7.58716 14.493 7.793ZM15.6238 9.13102C15.521 9.20821 15.3154 9.13102 15.3154 9.13102C15.3154 9.13102 15.007 9.56844 14.8785 9.64564C14.7757 9.72283 13.5934 10.0059 13.5934 10.0059C13.5934 10.0059 13.4649 10.2374 13.3364 10.186C13.1565 10.1345 13.3364 9.15675 13.4392 8.89944C13.5163 8.64213 14.1846 8.51347 14.5958 8.48774C15.007 8.48774 15.4182 8.77078 15.6495 8.9509C15.7009 8.97663 15.7009 9.05382 15.6238 9.13102ZM10.5864 8.77078C10.278 8.71932 10.1238 8.38482 9.7897 8.02458C9.27568 7.50996 8.71026 7.92166 8.37615 8.02458C8.14484 8.07605 8.01633 7.69008 8.29904 7.35558C8.60746 6.99534 9.48129 6.99534 9.8154 7.20119C9.96961 7.30412 10.4065 8.05031 10.7663 8.17897C11.5117 8.46201 11.1261 8.84797 10.5864 8.77078ZM10.6892 10.2632C10.5607 10.3146 10.535 10.1603 10.4579 10.1088C10.4322 10.0831 10.278 10.1345 10.1752 10.0573C10.0467 9.98014 10.021 9.82575 9.8668 9.72283C9.45559 9.46552 9.19858 9.54271 9.09577 9.49125C8.99297 9.43979 8.83876 9.2854 8.83876 9.2854C8.83876 9.2854 8.63316 9.36259 8.55605 9.2854C8.47895 9.20821 8.47895 9.15675 8.53035 9.10529C8.76166 8.92517 9.14717 8.64213 9.53269 8.66786C9.9182 8.66786 10.535 8.82224 10.6121 9.05382C10.6635 9.20821 10.7406 9.64564 10.7406 9.95441C10.7406 10.1088 10.8177 10.2117 10.6892 10.2632ZM5.98596 4.83394L7.014 5.78599L7.0911 5.86318C6.78269 6.17195 6.49998 6.53219 6.42288 6.81523L5.13783 5.6316L5.98596 4.83394ZM21.2523 13.1708C21.2009 13.5567 21.1238 13.9427 21.0467 14.3287L16.4462 13.4538L20.6869 15.4351C20.5327 15.7953 20.3785 16.1556 20.1986 16.4901L15.9836 14.5088L19.5818 17.4679C19.3504 17.7766 19.0934 18.0854 18.8364 18.3684L15.4953 15.7439L17.9626 19.1918C17.6542 19.4491 17.3458 19.6807 17.0117 19.8866L14.5958 16.6959L16.0093 20.4527C15.6495 20.6328 15.2897 20.7614 14.9042 20.8901L13.6191 18.3427L13.799 21.1731C13.4135 21.2503 13.0023 21.3018 12.5911 21.3275L12.0257 19.7322L11.4603 21.3275C11.049 21.3018 10.6635 21.2503 10.2523 21.1731L10.3294 18.4971L9.14717 20.8901C8.76166 20.7614 8.40185 20.6328 8.04203 20.4527L9.24998 17.0304L7.0397 19.9123C6.70559 19.7065 6.39717 19.4749 6.08876 19.2176L8.83876 15.4094L5.24063 18.4199C4.95792 18.1369 4.72661 17.8281 4.49531 17.5193L8.09344 14.5088L3.85278 16.5158C3.67288 16.1813 3.49297 15.8211 3.33876 15.4608L7.60512 13.4538L2.97895 14.3544C2.87615 13.9684 2.79904 13.5825 2.74764 13.1965L7.37381 12.2959L2.64484 12.0386V11.5755L2.67054 11.3696C2.67054 11.2152 2.69624 11.0351 2.72194 10.8807L7.1682 11.1123L2.92755 9.72283C3.03035 9.33686 3.13316 8.97663 3.28736 8.59067L6.78269 9.38833L3.77568 7.50996L4.3925 6.50645L7.50232 7.92166C7.45091 8.07604 7.34811 8.38482 7.37381 8.9509C7.39951 9.77429 7.29671 10.3146 7.63082 10.6491C7.99063 11.0094 8.45325 11.2924 8.71026 11.6269C8.76166 11.7041 8.81306 11.7556 8.83876 11.8328C8.91587 11.91 8.94157 11.9614 8.96727 12.0129L9.04437 12.1673C9.22428 11.8585 9.60979 11.6784 9.6869 11.7298C9.7383 11.7813 9.45559 12.0386 9.17288 12.7334C9.12147 12.8877 9.01867 13.1451 8.94157 13.3509C8.83876 13.6597 8.78736 13.9684 8.83876 14.3801C8.91587 15.0491 9.37848 15.8983 9.55839 16.1298C9.6869 16.2842 10.0981 16.207 10.4065 16.1298C10.7149 16.0527 11.2547 15.7439 11.4603 15.4866C11.6916 15.2293 11.8458 15.0491 11.7687 14.6374C11.7173 14.3544 11.4346 13.9684 11.2033 13.8141C10.9719 13.6854 10.5864 13.4024 10.4836 13.248C10.4322 13.1708 10.3551 13.0421 10.278 12.9392C10.2266 12.8363 10.1752 12.7591 10.2009 12.7076C10.278 12.6562 10.3037 12.6819 10.3808 12.7591C10.4579 12.8363 10.5093 12.9392 10.535 12.9135C10.5607 12.8877 10.535 12.8877 10.535 12.8105C10.5607 12.7591 10.6121 12.6819 10.7406 12.6047C10.9976 12.476 11.486 12.7848 12 12.7848C12.514 12.7848 13.1822 12.3217 13.3878 12.5018C13.5163 12.6047 13.542 12.7076 13.542 12.7848C13.542 12.7848 13.542 12.8105 13.5677 12.8105C13.6448 12.8105 13.7219 12.7076 13.799 12.6304C13.8504 12.579 13.9018 12.5532 13.9532 12.579C14.0047 12.6047 13.979 12.7076 13.9532 12.8105C13.9275 12.9135 13.8761 13.0164 13.8247 13.0421C13.6705 13.1708 13.3621 13.1708 12.8995 13.5825C12.4626 13.9684 12.2313 14.3287 12.2056 14.586C12.1799 14.7661 12.2827 15.1521 12.4626 15.3579C12.6425 15.5638 12.8738 15.7182 13.3107 15.7953C13.6962 15.8468 14.4416 15.6924 14.6472 15.5123C14.9299 15.255 15.0841 14.972 15.1869 14.5345C15.2897 14.0714 15.2126 13.3766 15.1355 13.1193C14.9042 12.3989 14.5444 11.9872 14.6472 11.91C14.7243 11.8328 14.9556 12.0643 15.1098 12.193C15.1355 12.0901 15.1612 11.807 15.2126 11.6527C15.2897 11.3182 15.4439 11.138 15.778 10.9579C16.1635 10.7263 16.7547 10.3918 16.8061 10.0059C16.8575 9.6199 16.9089 8.87371 16.8318 8.6164C16.7804 8.46201 16.729 8.2047 16.6775 8.02458L19.5304 6.48072C19.7617 6.7895 19.9673 7.124 20.1729 7.48423L17.2687 9.31113L20.6869 8.5392C20.8411 8.89944 20.9696 9.2854 21.0467 9.67137L16.5747 11.1123L21.2523 10.8035C21.3037 11.1895 21.3294 11.5755 21.3294 11.9614V11.9872L16.6518 12.3217L21.2523 13.1708Z"
      fill="#F7F4F1" />
  </g>
  <defs>
    <clipPath id="clip0_404_20">
      <rect width="24" height="24" fill="white" />
    </clipPath>
  </defs>
</svg>