<svg xmlns="http://www.w3.org/2000/svg" width="18" height="18" fill="none">
  <path fill="url(#a)" d="M17.112 4.693c-.25-1.836-1.863-3.283-3.777-3.563-.323-.048-1.546-.22-4.38-.22h-.02c-2.835 0-3.443.172-3.766.22-1.86.272-3.56 1.573-3.972 3.43C1 5.475.978 6.49 1.015 7.42c.052 1.335.063 2.667.185 3.995.084.883.232 1.759.441 2.621.392 1.592 1.978 2.917 3.532 3.458a9.552 9.552 0 0 0 5.167.27c.188-.043.375-.094.56-.151.415-.132.904-.278 1.263-.536a.04.04 0 0 0 .016-.031v-1.288a.039.039 0 0 0-.004-.016.038.038 0 0 0-.043-.02c-1.098.26-2.224.39-3.353.388-1.943 0-2.466-.914-2.616-1.295a3.982 3.982 0 0 1-.227-1.02c0-.006 0-.012.003-.018a.038.038 0 0 1 .01-.013.038.038 0 0 1 .033-.007c1.081.258 2.188.388 3.3.388.266 0 .533 0 .8-.007 1.118-.031 2.295-.088 3.395-.3.027-.006.055-.01.078-.018 1.734-.33 3.384-1.366 3.552-3.99.006-.103.022-1.082.022-1.189.001-.364.118-2.584-.017-3.948Zm-2.67 6.547H12.62V6.813c0-.932-.392-1.408-1.19-1.408-.875 0-1.314.563-1.314 1.673v2.424H8.303V7.078c0-1.11-.44-1.673-1.315-1.673-.793 0-1.188.476-1.19 1.408v4.427H3.978V6.678c0-.932.24-1.672.72-2.22.495-.548 1.145-.83 1.951-.83.934 0 1.639.356 2.109 1.067l.454.755.454-.755c.47-.71 1.176-1.067 2.107-1.067.806 0 1.456.282 1.952.83.48.547.72 1.288.72 2.22l-.001 4.562Z"/>
  <defs>
    <linearGradient id="a" x1="9.089" x2="9.089" y1=".91" y2="17.999" gradientUnits="userSpaceOnUse">
      <stop stop-color="#6364FF"/>
      <stop offset="1" stop-color="#563ACC"/>
    </linearGradient>
  </defs>
</svg>
