<svg xmlns="http://www.w3.org/2000/svg" width="24" height="24">
  <g fill="#61dafb" fill-rule="evenodd">
    <path d="m23.9658537 12c0-1.5617849-1.9853659-3.04187643-5.0292683-3.9597254.702439-3.05629291.3902439-5.48787185-.9853659-6.26636156-.3170732-.18260869-.6878049-.26910755-1.0926829-.26910755v1.07162472c.2243902 0 .404878.04324942.5560975.12494279.6634147.37482837.9512196 1.80205949.7268293 3.63775743-.0536585.45171625-.1414634.92745996-.2487805 1.41281465-.9560975-.23066362-2-.40846682-3.0975609-.52379863-.6585366-.88901602-1.3414635-1.69633867-2.0292683-2.40274599 1.5902439-1.45606408 3.0829268-2.25377575 4.0975609-2.25377575v-1.07162471c-1.3414634 0-3.0975609.94187643-4.8731707 2.57574371-1.7756098-1.6242563-3.53170731-2.55652174-4.87317073-2.55652174v1.07162471c1.0097561 0 2.50731707.79290618 4.09756093 2.23935927-.6829268.70640732-1.36585361 1.50892448-2.0146341 2.3979405-1.10243902.11533181-2.14634146.29313501-3.10243902.52860412-.11219513-.4805492-.19512196-.94668192-.25365854-1.39359268-.22926829-1.83569794.05365854-3.26292906.71219512-3.64256292.14634146-.08649886.33658537-.1249428.56097561-.1249428v-1.07162471c-.4097561 0-.7804878.08649886-1.10243902.26910755-1.37073171.7784897-1.67804878 3.20526316-.97073171 6.25194508-3.03414634.92265446-5.0097561 2.39794051-5.0097561 3.95491991 0 1.5617849 1.98536586 3.0418764 5.02926829 3.9597254-.70243902 3.0562929-.3902439 5.4878719.98536586 6.2663616.31707317.1826087.68780488.2691075 1.09756097.2691075 1.34146342 0 3.09756094-.9418764 4.87317074-2.5757437 1.7756098 1.6242563 3.5317073 2.5565217 4.8731707 2.5565217.4097561 0 .7804878-.0864988 1.1024391-.2691075 1.3707317-.7784897 1.6780487-3.2052632.9707317-6.2519451 3.0243902-.917849 5-2.3979405 5-3.9549199zm-6.3512196-3.20526316c-.1804878.61990847-.404878 1.25903886-.6585365 1.89816936-.2-.3844394-.4097561-.76887874-.6390244-1.1533181-.2243903-.38443936-.4634147-.75926773-.7024391-1.12448513.692683.10091534 1.3609757.22585813 2 .37963387zm-2.2341463 5.11784896c-.3804878.6487414-.7707317 1.2638444-1.1756098 1.835698-.7268292.0624713-1.4634146.0961098-2.204878.0961098-.7365854 0-1.4731707-.0336385-2.19512195-.0913044-.40487805-.5718535-.8-1.182151-1.18048781-1.8260869-.3707317-.6295195-.70731707-1.2686499-1.01463414-1.9125858.30243902-.643936.64390244-1.2878719 1.0097561-1.9173913.3804878-.64874145.7707317-1.26384442 1.17560975-1.83569797.72682925-.06247139 1.46341465-.09610984 2.20487805-.09610984.7365854 0 1.4731707.03363845 2.195122.09130435.404878.57185355.8 1.18215103 1.1804878 1.82608696.3707317.6295194.707317 1.2686499 1.0146341 1.9125858-.3073171.6439359-.6439024 1.2878719-1.0097561 1.9173913zm1.5756098-.6247139c.2634146.6439359.4878048 1.2878718.6731707 1.9125858-.6390244.1537757-1.3121951.283524-2.0097561.3844393.2390244-.3700229.4780488-.7496567.702439-1.1389016.2243903-.3844393.4341464-.7736842.6341464-1.1581235zm-4.9463415 5.1274599c-.4536585-.4613272-.9073171-.9755149-1.3560976-1.5377574.4390244.0192219.8878049.0336384 1.3414635.0336384.4585365 0 .9121951-.009611 1.3560975-.0336384-.4390244.5622425-.8926829 1.0764302-1.3414634 1.5377574zm-3.6292683-2.8304348c-.69268292-.1009153-1.3609756-.2258581-2-.3796338.18048781-.6199085.40487805-1.2590389.65853659-1.8981694.2.3844394.4097561.7688787.63902439 1.1533181s.46341463.7592677.70243902 1.1244851zm3.6048781-10.00022881c.4536585.46132723.907317.97551488 1.3560975 1.53775744-.4390244-.01922197-.8878049-.03363844-1.3414634-.03363844-.4585366 0-.9121951.00961098-1.3560976.03363844.4390244-.56224256.892683-1.07643021 1.3414635-1.53775744zm-3.60975614 2.83043478c-.23902439.37002289-.47804878.74965676-.70243903 1.13890161-.22439024.38443936-.43414634.76887872-.63414634 1.15331812-.26341463-.643936-.48780488-1.2878719-.67317073-1.91258586.63902439-.14897025 1.31219512-.27871853 2.0097561-.37963387zm-4.41463415 6.01647593c-1.72682927-.7256292-2.84390244-1.6771167-2.84390244-2.4315789s1.11707317-1.7107551 2.84390244-2.43157895c.41951219-.1778032.87804878-.33638444 1.35121951-.48535469.27804878.94187644.64390244 1.92219684 1.09756098 2.92654464-.44878049.9995423-.8097561 1.9750572-1.08292683 2.9121281-.48292683-.1489702-.94146342-.3123569-1.36585366-.4901602zm2.62439024 6.8670481c-.66341463-.3748284-.95121951-1.8020595-.72682926-3.6377574.05365853-.4517163.14146341-.92746.24878048-1.4128147.95609756.2306636 2 .4084668 3.09756098.5237986.65853658.8890161 1.34146345 1.6963387 2.02926825 2.402746-1.59024386 1.4560641-3.08292679 2.2537758-4.09756093 2.2537758-.2195122-.0048055-.40487805-.0480549-.55121952-.1297483zm11.57073175-3.6617849c.2292683 1.8356979-.0536586 3.2629291-.7121952 3.6425629-.1463414.0864989-.3365853.1249428-.5609756.1249428-1.0097561 0-2.507317-.7929062-4.0975609-2.2393592.6829268-.7064074 1.3658536-1.5089245 2.0146341-2.3979405 1.102439-.1153319 2.1463415-.2931351 3.102439-.5286042.1121951.4853547.2.9514875.2536586 1.3983982zm1.8780487-3.2052632c-.4195122.1778033-.8780487.3363845-1.3512195.4853547-.2780488-.9418764-.6439024-1.9221968-1.0975609-2.9265446.4487804-.9995423.8097561-1.9750572 1.0829268-2.91212813.4829268.14897025.9414634.31235698 1.3707317.49016018 1.7268293.72562925 2.8439024 1.67711675 2.8439024 2.43157895-.004878.7544622-1.1219512 1.7107551-2.8487805 2.4315789z" fill-rule="nonzero"/>
    <ellipse cx="11.995122" cy="12" rx="2.229268" ry="2.19611" />
  </g>
</svg>