<svg width="18" height="18" xmlns="http://www.w3.org/2000/svg"><path d="M12.352 7.455a88.357 88.357 0 0 0 1.29-3.71c.309-.974.463-1.573.463-1.795 0-.238-.051-.424-.154-.555a.511.511 0 0 0-.426-.198c-.23 0-.465.192-.704.574-.238.383-.501.998-.79 1.845l-1.234 3.567 1.555.272zm-1.641 3.32a7.587 7.587 0 0 1-1.006-.111 5.335 5.335 0 0 1-.907-.247c.131.264.249.527.352.79.102.263.187.523.253.778.197-.247.405-.471.623-.673.218-.202.446-.38.685-.537zm-1.395-3.74l-1.333-3.85c-.345-.98-.613-1.62-.802-1.92-.19-.3-.395-.45-.617-.45a.515.515 0 0 0-.42.197c-.107.132-.16.309-.16.53 0 .38.144 1.038.432 1.976.288.938.72 2.168 1.296 3.69.05-.09.119-.154.21-.191.09-.037.213-.056.37-.056.05 0 .148.004.296.012.148.009.39.03.728.062zm-1.21 5.962c.14 0 .268-.064.383-.192a.607.607 0 0 0 .173-.413c0-.156-.113-.52-.34-1.092a10.953 10.953 0 0 0-.845-1.685c-.247-.412-.49-.722-.728-.932-.239-.21-.465-.315-.679-.315-.173 0-.364.11-.574.327-.21.218-.315.422-.315.611 0 .198.103.494.309.889.206.395.481.815.827 1.259.362.486.704.864 1.024 1.135.321.272.576.408.766.408zM4.405 12.7c.115.14.276.346.481.618.543.748 1.045 1.123 1.506 1.123.156 0 .296-.05.42-.148.123-.1.185-.202.185-.309 0-.123-.083-.329-.247-.617a7.976 7.976 0 0 0-.679-.975c-.329-.42-.603-.726-.82-.92-.219-.193-.394-.29-.525-.29-.288 0-.554.155-.796.463a1.714 1.714 0 0 0-.364 1.092c0 .338.084.714.253 1.13.168.415.413.833.734 1.253a4.9 4.9 0 0 0 1.808 1.5c.72.35 1.516.524 2.388.524 1.605 0 2.948-.599 4.03-1.796 1.082-1.197 1.623-2.697 1.623-4.499 0-.551-.041-.99-.123-1.314-.082-.325-.218-.562-.407-.71-.338-.28-.994-.53-1.97-.753a13.714 13.714 0 0 0-3.054-.333c-.296 0-.506.05-.63.148-.123.099-.184.267-.184.506 0 .56.312.965.938 1.216.625.25 1.637.376 3.036.376h.506a.34.34 0 0 1 .278.13c.07.086.117.216.142.389-.14.131-.428.282-.864.45-.437.169-.77.335-1 .5-.494.362-.89.792-1.191 1.29-.3.498-.45.969-.45 1.413 0 .271.063.598.19.981.128.383.192.62.192.71v.086l-.025.111c-.362-.024-.648-.236-.858-.635-.21-.4-.314-.932-.314-1.599v-.11a.544.544 0 0 1-.395.16c-.074 0-.144-.007-.21-.019a2.153 2.153 0 0 1-.222-.055 2.183 2.183 0 0 1 .074.469c0 .304-.12.566-.358.783a1.22 1.22 0 0 1-.852.327c-.518 0-1.045-.253-1.58-.759-.535-.506-.802-1.001-.802-1.487 0-.09.01-.17.031-.24.02-.07.055-.13.105-.18zm8.837-5.035c.74.14 1.263.452 1.568.938.304.485.456 1.25.456 2.295 0 2.074-.623 3.771-1.87 5.092-1.246 1.32-2.84 1.98-4.782 1.98a6.18 6.18 0 0 1-2.228-.413 5.517 5.517 0 0 1-1.858-1.154c-.592-.543-1.037-1.117-1.333-1.722a4.178 4.178 0 0 1-.444-1.857c0-.708.152-1.255.457-1.642.304-.386.785-.65 1.444-.79a6.602 6.602 0 0 1-.272-.728 1.773 1.773 0 0 1-.086-.456c0-.37.195-.75.586-1.136.39-.387.76-.58 1.105-.58.148 0 .304.027.469.08.164.054.353.142.567.266-.633-1.794-1.094-3.179-1.382-4.154-.288-.975-.432-1.647-.432-2.018 0-.51.132-.915.395-1.216.263-.3.621-.45 1.074-.45.773 0 1.753 1.728 2.937 5.184.206.592.363 1.049.47 1.37l.382-1.086C11.65 2.045 12.67.333 13.525.333c.42 0 .755.142 1.006.426.25.284.376.665.376 1.142 0 .362-.137 1.024-.413 1.987-.276.963-.693 2.221-1.253 3.777z" fill="#1A1919" fill-rule="evenodd"/></svg>