<svg width="24" height="24" fill="none" xmlns="http://www.w3.org/2000/svg"><path d="M12 24c6.42 0 11.625-5.373 11.625-12S18.42 0 12 0 .375 5.373.375 12 5.58 24 12 24Z" fill="#1C1F21"/><path d="M6.867 17.3a1.339 1.339 0 0 1 0 1.84 1.214 1.214 0 0 1-1.702.063l-.063-.063a1.339 1.339 0 0 1 0-1.84 1.214 1.214 0 0 1 1.702-.064c.018.018.045.037.063.063Zm-1.566-2.44a1.225 1.225 0 0 0-1.575-.724c-.018 0-.036.018-.064.027a1.32 1.32 0 0 0-.221 2.276c.206.143.45.222.701.226.163 0 .326-.036.48-.098a1.328 1.328 0 0 0 .679-1.698v-.01Zm-.19-10.036a1.339 1.339 0 0 0 0 1.841 1.213 1.213 0 0 0 1.702.063l.063-.063a1.339 1.339 0 0 0 0-1.841 1.214 1.214 0 0 0-1.701-.062l-.063.062Zm-1.44 4.978a1.237 1.237 0 0 0 1.639-.707 1.312 1.312 0 0 0-.679-1.697 1.236 1.236 0 0 0-1.61.643c0 .018-.02.036-.028.063a1.323 1.323 0 0 0 .679 1.698Zm14.322-2.753c.335 0 .661-.134.896-.384a1.327 1.327 0 0 0 0-1.832 1.213 1.213 0 0 0-1.765 0 1.339 1.339 0 0 0 0 1.841c.226.241.543.375.878.375h-.01ZM3.5 13.278c.724.035 1.349-.518 1.385-1.233a1.312 1.312 0 0 0-1.25-1.367 1.316 1.316 0 0 0-1.384 1.233v.062a1.282 1.282 0 0 0 1.248 1.305Zm15.18-4.165c.18.474.643.795 1.159.805.163 0 .325-.036.48-.098a1.327 1.327 0 0 0 .678-1.698 1.241 1.241 0 0 0-1.575-.733c-.018 0-.044.018-.063.026a1.307 1.307 0 0 0-.67 1.698h-.009Zm-9.47 9.83a1.237 1.237 0 0 0-1.61.644c0 .018-.019.036-.027.063a1.31 1.31 0 0 0 .678 1.697 1.239 1.239 0 0 0 1.639-.706 1.326 1.326 0 0 0-.68-1.707v.01Zm-.94-16.3a1.32 1.32 0 0 0-.68 1.699 1.253 1.253 0 0 0 1.16.804c.162 0 .325-.036.48-.098a1.32 1.32 0 0 0 .678-1.699c-.227-.634-.932-.956-1.575-.732-.018 0-.045.018-.064.027Zm3.711 16.882a1.306 1.306 0 0 0-1.268 1.349 1.313 1.313 0 0 0 1.268 1.251 1.307 1.307 0 0 0 1.23-1.385 1.308 1.308 0 0 0-1.23-1.215Zm8.337-5.336a1.237 1.237 0 0 0-1.611.644c0 .018-.018.045-.027.062a1.315 1.315 0 0 0 .67 1.698c.154.063.316.099.48.099a1.23 1.23 0 0 0 1.15-.805 1.33 1.33 0 0 0-.671-1.707l.009.01Zm.181-3.494c-.706.018-1.267.6-1.249 1.296v.018a1.282 1.282 0 0 0 1.25 1.305 1.274 1.274 0 0 0 1.248-1.296v-.027c.019-.697-.543-1.278-1.258-1.296h.01Zm-3.394 6.631a1.339 1.339 0 0 0 0 1.841c.452.482 1.213.51 1.702.063l.063-.063a1.338 1.338 0 0 0 0-1.84 1.213 1.213 0 0 0-1.702-.064c-.027.018-.045.045-.063.063ZM12 1.875a1.307 1.307 0 0 0-1.268 1.35A1.312 1.312 0 0 0 12 4.475a1.307 1.307 0 0 0 1.268-1.35A1.313 1.313 0 0 0 12 1.875Zm2.752 17.078a1.312 1.312 0 0 0-.679 1.698 1.253 1.253 0 0 0 1.159.803c.163 0 .325-.035.48-.097a1.312 1.312 0 0 0 .678-1.699 1.225 1.225 0 0 0-1.575-.724c-.018 0-.036.018-.063.027v-.008Zm.968-16.31a1.236 1.236 0 0 0-1.611.644c0 .018-.018.035-.027.063a1.312 1.312 0 0 0 .679 1.698c.154.062.317.098.48.098a1.24 1.24 0 0 0 1.159-.804 1.312 1.312 0 0 0-.68-1.698Z" fill="#6EE8CC"/></svg>