<svg width="18" height="18" xmlns="http://www.w3.org/2000/svg"><g fill="none" fill-rule="nonzero"><path d="M16.696 0H1.356C.624 0 0 .58 0 1.295v15.41C0 17.42.623 18 1.357 18h15.34A1.29 1.29 0 0 0 18 16.704V1.295A1.29 1.29 0 0 0 16.696 0z" fill="#0073B0"/><path d="M7.125 6.75h2.437v1.225c.352-.704 1.252-1.337 2.605-1.337 2.592 0 3.208 1.401 3.208 3.973v4.764H12.75v-4.178c0-1.465-.352-2.29-1.245-2.29-1.24 0-1.755.89-1.755 2.29v4.178H7.125V6.75zM2.625 15.375H5.25V6.75H2.625zM5.625 3.938a1.688 1.688 0 1 1-3.375 0 1.688 1.688 0 0 1 3.375 0z" fill="#FFF"/></g></svg>