<svg height="24" viewBox="0 0 24 24" width="24" xmlns="http://www.w3.org/2000/svg"><path d="m7.54752 22c9.05664 0 14.01024-7.6951973 14.01024-14.36843778 0-.2185688 0-.43615307-.0144-.65275279.9636781-.71486684 1.7955413-1.60000303 2.45664-2.6139648-.8986761.40839067-1.8520039.67621315-2.82816.79452716 1.0279142-.63111049 1.7972386-1.62373785 2.1648-2.79315184-.9665688.58822115-2.0240197 1.00277008-3.12672 1.2257575-1.5263205-1.66447602-3.9516294-2.07186238-5.9159527-.9937202s-2.9791433 3.37368418-2.4754073 5.59941788c-3.95914009-.20355497-7.64786325-2.12137444-10.14816-5.27617227-1.30692215 2.30742178-.63937163 5.25929667 1.52448 6.74117401-.78360845-.02381854-1.5501318-.24060962-2.23488-.63207736v.06399537c.00064141 2.40385612 1.65288143 4.47429562 3.9504 4.95028812-.72492519.2027571-1.48552264.2323961-2.22336.0866399.64507001 2.0571291 2.49367158 3.4663673 4.60032 3.5069464-1.74361436 1.4053698-3.89754287 2.1682889-6.1152 2.1659972-.39177257-.0007714-.7831641-.0250985-1.17216-.0728563 2.25181051 1.4820113 4.87191687 2.2681111 7.54752 2.2644516" fill="#1da1f2" fill-rule="evenodd"/></svg>