<svg height="24" viewBox="0 0 24 24" width="24" xmlns="http://www.w3.org/2000/svg"><g fill="#33b6cb" fill-rule="evenodd"><path d="m15.2159 13.0429c.785-1.386 1.186-2.619 1.171-3.572-.019-1.17-.484-2.041-1.171-2.619-2.064-1.735-6.13-.809-6.075 2.673.02 1.314.658 3.016 2.317 5.066 0 0 .925-.827 1.128-1.57-4.404-5.987 4.855-6.313.247.324 0 0-.532.866-1.21 1.447-1.436 1.355-2.737 1.782-3.871 1.596-3.938-.646-4.566-6.522-4.858-10.015h-2.892c-.001.038-.001.078-.002.116v.654c.152 6.932 5.058 16.577 12.899 8.991.776-.778 1.217-1.398 1.217-1.398.425-.583.792-1.149 1.1-1.693"/><path d="m21.9366 9.7479c-.025.088-.044.182-.058.281-.528 4.072-2.885 7.512-6.442 5.617-.07.098-.145.193-.221.285-.355.427-.763.791-1.137 1.079-.01-.006-.021-.011-.033-.014.392.245.783.441 1.17.591 4.392 1.698 8.399-2.499 8.784-7.747z"/></g></svg>